#!OML:ASF X:\für Bonn\!DataBase\2005_08_10_Bjorn_Final\c3d\bjorn.ASF
:FULLY-SPECIFIED
:DEGREES
139
root 1.83383 19.0657 3.36839 -179.12 -6.00003 -184.285
lowerback 10.7649 2.17079 15.5881
upperback 13.5546 1.11037 1.53535
thorax 9.58287 0.978626 -7.15111
lowerneck -0.913984 11.0161 5.5442
upperneck 11.6938 16.1896 -17.5135
head 5.57633 7.14389 -5.38405
rclavicle 1.74931e-014 5.08889e-014
rhumerus -19.0726 -11.4352 -79.65
rradius 40.1679
rwrist -1.52345
rhand -9.67096 7.86584
rfingers 7.12502
rthumb 16.3005 -21.469
lclavicle 1.74931e-014 5.08889e-014
lhumerus -27.7665 -15.0121 88.8498
lradius 51.0949
lwrist -19.536
lhand -34.7693 -17.1609
lfingers 7.12502
lthumb -7.92212 12.6706
rfemur -19.9929 -2.94934 14.3227
rtibia 37.1358
rfoot -13.2712 17.0006
rtoes -7.9501
lfemur -39.5659 -2.05396 -24.418
ltibia 97.155
lfoot -13.6967 -0.976026
ltoes -17.9177
140
root 1.83109 19.075 3.38034 -179.377 -5.79364 -184.537
lowerback 11.5173 2.25099 15.6625
upperback 13.7519 1.25166 1.48455
thorax 9.45031 1.02449 -7.26469
lowerneck -1.02566 11.0829 5.56732
upperneck 11.3367 16.2816 -17.737
head 5.51912 7.19976 -5.44302
rclavicle 6.36111e-014 4.29375e-014
rhumerus -18.6249 -11.2567 -79.4481
rradius 40.4814
rwrist -1.73493
rhand -9.82061 7.90378
rfingers 7.12502
rthumb 16.1564 -21.4429
lclavicle 6.36111e-014 4.29375e-014
lhumerus -27.7802 -14.4895 88.3748
lradius 51.4862
lwrist -19.7733
lhand -35.1395 -17.1566
lfingers 7.12502
lthumb -8.27941 12.6612
rfemur -19.6325 -2.81256 14.0181
rtibia 36.9203
rfoot -13.1403 17.068
rtoes -8.05215
lfemur -41.4237 -2.05362 -24.6156
ltibia 99.1294
lfoot -14.0102 -1.78175
ltoes -17.006
141
root 1.82819 19.0858 3.39193 -179.673 -5.57805 -184.781
lowerback 12.3062 2.33084 15.7424
upperback 13.9695 1.38449 1.45172
thorax 9.32483 1.06233 -7.36425
lowerneck -1.16281 11.1506 5.54202
upperneck 10.9803 16.374 -17.9589
head 5.46307 7.25164 -5.49257
rclavicle 8.26944e-014 5.88403e-014
rhumerus -18.1279 -11.073 -79.2137
rradius 40.7547
rwrist -1.91559
rhand -9.94137 7.87939
rfingers 7.12502
rthumb 16.0401 -21.4767
lclavicle 8.26944e-014 5.88403e-014
lhumerus -27.7979 -13.9452 87.9206
lradius 51.8895
lwrist -20.0548
lhand -35.5198 -17.232
lfingers 7.12502
lthumb -8.64643 12.5709
rfemur -19.2033 -2.63665 13.7212
rtibia 36.6641
rfoot -13.0175 17.1072
rtoes -8.22043
lfemur -43.2835 -2.0874 -24.7468
ltibia 101.035
lfoot -14.3753 -2.74945
ltoes -15.9658
142
root 1.82549 19.0979 3.40416 -179.992 -5.34585 -185.05
lowerback 13.1445 2.41357 15.8307
upperback 14.194 1.52785 1.38396
thorax 9.19078 1.10706 -7.51116
lowerneck -1.30391 11.2036 5.52885
upperneck 10.585 16.4375 -18.1573
head 5.39137 7.29461 -5.53922
rclavicle 6.83819e-014 3.97569e-014
rhumerus -17.6278 -10.9256 -79.0015
rradius 41.022
rwrist -2.14753
rhand -10.0491 7.82099
rfingers 7.12502
rthumb 15.9363 -21.5434
lclavicle 6.83819e-014 3.97569e-014
lhumerus -27.8316 -13.3865 87.4112
lradius 52.3247
lwrist -20.4271
lhand -35.9201 -17.3481
lfingers 7.12502
lthumb -9.03266 12.4385
rfemur -18.7375 -2.43798 13.3985
rtibia 36.3676
rfoot -12.8616 17.1451
rtoes -8.31057
lfemur -45.1785 -2.11342 -24.869
ltibia 102.867
lfoot -14.7416 -3.68354
ltoes -15.2654
143
root 1.82364 19.1115 3.41678 -180.36 -5.09533 -185.31
lowerback 14.0531 2.49711 15.9051
upperback 14.4298 1.66895 1.34335
thorax 9.03424 1.14136 -7.6246
lowerneck -1.51044 11.2574 5.44998
upperneck 10.2461 16.5065 -18.3329
head 5.34214 7.33022 -5.56411
rclavicle -5.725e-014 -4.45278e-014
rhumerus -17.1077 -10.7754 -78.7396
rradius 41.2842
rwrist -2.39335
rhand -10.107 7.68173
rfingers 7.12502
rthumb 15.8806 -21.6871
lclavicle -5.725e-014 -4.45278e-014
lhumerus -27.916 -12.8066 86.9309
lradius 52.8516
lwrist -20.8129
lhand -36.3493 -17.5137
lfingers 7.12502
lthumb -9.44681 12.2546
rfemur -18.2031 -2.22227 13.0956
rtibia 36.032
rfoot -12.6995 17.1681
rtoes -8.5537
lfemur -47.0709 -2.12572 -24.9338
ltibia 104.622
lfoot -15.1294 -4.59326
ltoes -14.777
144
root 1.82127 19.1259 3.43104 -180.817 -4.80137 -185.567
lowerback 15.0769 2.58526 16.0233
upperback 14.6943 1.81954 1.28556
thorax 8.86759 1.17924 -7.78786
lowerneck -1.731 11.295 5.3852
upperneck 9.86245 16.5461 -18.5037
head 5.27884 7.35517 -5.59193
rclavicle 3.97569e-014 7.31528e-014
rhumerus -16.5406 -10.6885 -78.4799
rradius 41.5119
rwrist -2.65434
rhand -10.163 7.5867
rfingers 7.12502
rthumb 15.8267 -21.7864
lclavicle 3.97569e-014 7.31528e-014
lhumerus -28.0516 -12.2861 86.4195
lradius 53.5185
lwrist -21.1552
lhand -36.7424 -17.6294
lfingers 7.12502
lthumb -9.82616 12.1213
rfemur -17.571 -1.94552 12.7987
rtibia 35.661
rfoot -12.5114 17.1736
rtoes -8.72013
lfemur -48.8984 -2.10013 -24.932
ltibia 106.291
lfoot -15.4677 -5.53625
ltoes -14.0856
145
root 1.81869 19.1409 3.44774 -181.273 -4.49263 -185.966
lowerback 16.1443 2.68763 16.0091
upperback 14.9854 1.97324 1.19994
thorax 8.70241 1.20599 -7.91442
lowerneck -2.0458 11.3331 5.26225
upperneck 9.50068 16.5883 -18.6441
head 5.2318 7.37379 -5.59536
rclavicle -4.92986e-014 -9.54166e-015
rhumerus -15.9384 -10.6191 -78.1859
rradius 41.7565
rwrist -2.91496
rhand -10.2102 7.4888
rfingers 7.12502
rthumb 15.7812 -21.8879
lclavicle -4.92986e-014 -9.54166e-015
lhumerus -28.1874 -11.777 85.9183
lradius 54.2661
lwrist -21.4796
lhand -37.3492 -17.7954
lfingers 7.12502
lthumb -10.4116 11.9268
rfemur -16.9191 -1.66557 12.3455
rtibia 35.2459
rfoot -12.2622 17.2126
rtoes -8.81488
lfemur -50.7313 -2.12177 -25.0291
ltibia 107.886
lfoot -15.7858 -6.44543
ltoes -13.3409
146
root 1.81629 19.1597 3.466 -181.724 -4.1598 -186.464
lowerback 17.2585 2.79668 15.8809
upperback 15.268 2.12779 1.10911
thorax 8.49357 1.21802 -7.98942
lowerneck -2.34675 11.369 5.08212
upperneck 9.12768 16.6251 -18.7999
head 5.17517 7.3866 -5.5968
rclavicle -1.44715e-013 -7.31528e-014
rhumerus -15.3266 -10.5753 -77.8502
rradius 41.9658
rwrist -3.17533
rhand -10.2063 7.42331
rfingers 7.12502
rthumb 15.785 -21.9531
lclavicle -1.44715e-013 -7.31528e-014
lhumerus -28.375 -11.2821 85.466
lradius 55.0749
lwrist -21.6899
lhand -38.1995 -17.8624
lfingers 7.12502
lthumb -11.2317 11.817
rfemur -16.2582 -1.3711 11.7881
rtibia 34.7807
rfoot -11.9863 17.2469
rtoes -8.95153
lfemur -52.591 -2.15581 -25.1703
ltibia 109.436
lfoot -16.2108 -7.10119
ltoes -13.754
147
root 1.81348 19.1808 3.48638 -182.204 -3.79891 -187.005
lowerback 18.4364 2.92159 15.736
upperback 15.5754 2.28919 0.998396
thorax 8.29203 1.2292 -8.08398
lowerneck -2.73114 11.3988 4.89273
upperneck 8.76177 16.6545 -18.9375
head 5.13211 7.39158 -5.58687
rclavicle -1.11319e-014 2.54444e-014
rhumerus -14.7123 -10.5514 -77.5091
rradius 42.2201
rwrist -3.46143
rhand -10.226 7.3177
rfingers 7.12502
rthumb 15.766 -22.0602
lclavicle -1.11319e-014 2.54444e-014
lhumerus -28.4616 -10.8647 85.0044
lradius 55.8252
lwrist -21.8084
lhand -39.0824 -17.8821
lfingers 7.12502
lthumb -12.0831 11.749
rfemur -15.5553 -1.04063 11.1879
rtibia 34.2648
rfoot -11.6604 17.282
rtoes -9.06947
lfemur -54.4808 -2.20134 -25.2532
ltibia 111.002
lfoot -16.7727 -7.47764
ltoes -15.2606
148
root 1.8106 19.206 3.50746 -182.672 -3.41205 -187.581
lowerback 19.6213 3.05509 15.5398
upperback 15.8749 2.44697 0.887703
thorax 8.07795 1.23095 -8.15436
lowerneck -3.08042 11.4315 4.67592
upperneck 8.36849 16.6826 -19.0824
head 5.07303 7.39769 -5.57794
rclavicle -2.38542e-014 3.81667e-014
rhumerus -14.1122 -10.5481 -77.1516
rradius 42.4603
rwrist -3.66547
rhand -10.2458 7.30485
rfingers 7.12502
rthumb 15.747 -22.0745
lclavicle -2.38542e-014 3.81667e-014
lhumerus -28.5862 -10.4553 84.5714
lradius 56.6269
lwrist -21.8055
lhand -39.97 -17.8105
lfingers 7.12502
lthumb -12.9389 11.7684
rfemur -14.8608 -0.687619 10.5596
rtibia 33.7141
rfoot -11.3217 17.31
rtoes -9.29153
lfemur -56.3914 -2.25673 -25.2554
ltibia 112.558
lfoot -17.3778 -7.70295
ltoes -17.0087
149
root 1.80765 19.2311 3.53036 -183.145 -3.01418 -188.179
lowerback 20.8282 3.19891 15.3215
upperback 16.1871 2.59776 0.771772
thorax 7.87399 1.2243 -8.22251
lowerneck -3.51588 11.4541 4.42629
upperneck 7.9936 16.6998 -19.2071
head 5.02878 7.3918 -5.55383
rclavicle -1.90833e-014 -4.13472e-014
rhumerus -13.494 -10.5611 -76.779
rradius 42.7471
rwrist -3.8535
rhand -10.2496 7.27783
rfingers 7.12502
rthumb 15.7433 -22.1019
lclavicle -1.90833e-014 -4.13472e-014
lhumerus -28.6718 -10.0733 84.1348
lradius 57.5088
lwrist -21.5808
lhand -40.7222 -17.7386
lfingers 7.12502
lthumb -13.6639 11.7928
rfemur -14.1767 -0.294106 9.92083
rtibia 33.154
rfoot -10.9859 17.2966
rtoes -9.50588
lfemur -58.2855 -2.31303 -25.1139
ltibia 114.086
lfoot -17.8944 -8.12511
ltoes -17.9638
150
root 1.80618 19.2533 3.55538 -183.62 -2.58869 -188.78
lowerback 22.0768 3.35527 15.0724
upperback 16.4938 2.7499 0.659005
thorax 7.64809 1.20983 -8.27571
lowerneck -3.96579 11.4792 4.20917
upperneck 7.63719 16.7247 -19.3734
head 5.00048 7.38556 -5.54612
rclavicle 8.11041e-014 3.18055e-015
rhumerus -12.8908 -10.5848 -76.4097
rradius 43.0843
rwrist -3.9583
rhand -10.2763 7.28042
rfingers 7.12502
rthumb 15.7176 -22.1013
lclavicle 8.11041e-014 3.18055e-015
lhumerus -28.7419 -9.68238 83.6947
lradius 58.4491
lwrist -21.2095
lhand -41.3538 -17.6393
lfingers 7.12502
lthumb -14.2726 11.8502
rfemur -13.5359 0.218204 9.30184
rtibia 32.6302
rfoot -10.6776 17.205
rtoes -9.6921
lfemur -60.1554 -2.32086 -24.7531
ltibia 115.594
lfoot -18.1641 -8.9286
ltoes -17.6587
